<svg id="Artwork" viewBox="0 0 512 512" xmlns="http://www.w3.org/2000/svg" fill="#fff">
    <path
        d="m472.12 223.76s27.27-97.1-17.35-207.26a10.26 10.26 0 0 0 -13-5.86c-23.13 8.3-86 37.11-123.22 94.47-35.65-10.02-62.55-9.52-62.55-9.52s-26.9-.5-62.58 9.52c-37.21-57.36-100.09-86.17-123.22-94.47a10.26 10.26 0 0 0 -13 5.86c-44.59 110.16-17.32 207.26-17.32 207.26l.45-.54c-22.12 26.64-30.33 36.68-30.33 36.68 0 242.1 246 242.1 246 242.1s246 0 246-242.07c0-.03-8.1-9.93-29.88-36.17z"
         />
</svg>