<?xml version="1.0"?>
<svg xmlns="http://www.w3.org/2000/svg" id="line" viewBox="0 0 64 64" stroke="#6b04fd">
    <path
        d="M59.24,29.44a11.58589,11.58589,0,0,0-3.96-.26,22.95829,22.95829,0,0,0-.97-2.11.79988.79988,0,0,1-.07-.6c.92-3.23,2.83-11.11.54-14.62994a3.28091,3.28091,0,0,0-2.22-1.44c-3.19-.56-8.21,2.79-10.91,4.83a.78856.78856,0,0,1-.74.11005,26.99161,26.99161,0,0,0-7.19-1.79,32.89246,32.89246,0,0,0-3.43994,0,26.99161,26.99161,0,0,0-7.19,1.79A.78856.78856,0,0,1,22.35,15.23c-2.7-2.04-7.7-5.38995-10.91-4.83a3.28091,3.28091,0,0,0-2.22,1.44C6.93,15.36,8.84,23.24,9.76,26.47a.79988.79988,0,0,1-.07.6,22.95829,22.95829,0,0,0-.97,2.11,11.58589,11.58589,0,0,0-3.96.26.99925.99925,0,0,0,.48,1.94,9.709,9.709,0,0,1,2.78-.25,18.08864,18.08864,0,0,0-.81,6.48,11.73151,11.73151,0,0,0-2.2,1.18.99627.99627,0,0,0-.25,1.39,1.01278,1.01278,0,0,0,1.39.26,9.46459,9.46459,0,0,1,1.34-.77,10.23662,10.23662,0,0,0,.82,2.47c5.9,11.13,21.35,11.52,23.45,11.52h.44c2.14,0,17.59-.38995,23.49-11.52a10.23662,10.23662,0,0,0,.82-2.47,9.46459,9.46459,0,0,1,1.34.77,1.01278,1.01278,0,0,0,1.39-.26.99627.99627,0,0,0-.25-1.39,11.73151,11.73151,0,0,0-2.2-1.18,18.08864,18.08864,0,0,0-.81-6.48,9.709,9.709,0,0,1,2.78.25.99925.99925,0,0,0,.48-1.94ZM49.08,38.5a16.62734,16.62734,0,0,1,5.53.49,7.95745,7.95745,0,0,1-.69,2.21C48.3,51.82,32.17,51.67,31.98,51.66c-.17,0-16.27.16-21.9-10.46a7.95745,7.95745,0,0,1-.69-2.21,16.63477,16.63477,0,0,1,5.53-.49.99724.99724,0,1,0,.24-1.98,18.143,18.143,0,0,0-5.98.44,16.38644,16.38644,0,0,1,.85-5.56,19.98415,19.98415,0,0,1,6.43,2.73.99864.99864,0,0,0,1.14-1.64,21.56064,21.56064,0,0,0-6.86-2.99q.33-.735.72-1.5a2.82993,2.82993,0,0,0,.23-2.09C10.32,21.15,9.4,15.24,10.9,12.93a1.21674,1.21674,0,0,1,.88-.55,2.05566,2.05566,0,0,1,.43994-.04c1.86,0,5.2,1.67,8.93005,4.49a2.7455,2.7455,0,0,0,2.65.38c.47-.18,1.2-.44,2.05-.71v4a1,1,0,0,0,2,0V15.95a14.33064,14.33064,0,0,1,2.52-.41c.21-.00995.42-.00995.63-.00995v8.73a1,1,0,0,0,2,0V15.53c.21,0,.42,0,.63.00995a14.33064,14.33064,0,0,1,2.52.41V20.5a1,1,0,0,0,2,0v-4c.85.27,1.58.53,2.05.71a2.74185,2.74185,0,0,0,2.65-.38c4.04-3.05,7.64-4.76,9.37-4.45a1.19781,1.19781,0,0,1,.88.55c1.5,2.31.58,8.22-.79,12.98A2.82993,2.82993,0,0,0,52.54,28c.27.51.5,1.01.72,1.5a21.56064,21.56064,0,0,0-6.86,2.99.99864.99864,0,1,0,1.14,1.64,19.98415,19.98415,0,0,1,6.43-2.73,16.38644,16.38644,0,0,1,.85,5.56,18.143,18.143,0,0,0-5.98-.44.99724.99724,0,1,0,.24,1.98Z" />
    <path
        d="M40.45,39.36a.99257.99257,0,0,0-1.34.44c-.78,1.56-1.91,2.45-3.11,2.45a3.64473,3.64473,0,0,1-3-2.26V37.93a2.12245,2.12245,0,0,0,.48-.37l1.33-1.46a1.9957,1.9957,0,0,0-1.47-3.35H30.66a1.9957,1.9957,0,0,0-1.47,3.35l1.33,1.46a2.12245,2.12245,0,0,0,.48.37v2.06a3.64473,3.64473,0,0,1-3,2.26c-1.2,0-2.33-.89-3.11-2.45a.99731.99731,0,0,0-1.78.9c1.12,2.26,2.91,3.55,4.89,3.55a5.10362,5.10362,0,0,0,4-2.14,5.10362,5.10362,0,0,0,4,2.14c1.98,0,3.77-1.29,4.89-3.55A.99257.99257,0,0,0,40.45,39.36Z" />
    <path
        d="M25.18115,29.55518a1.00012,1.00012,0,0,0,1.6377-1.14844A4.68123,4.68123,0,0,0,23,26.209a4.68123,4.68123,0,0,0-3.81885,2.19776,1.00012,1.00012,0,0,0,1.6377,1.14844A2.47774,2.47774,0,0,1,25.18115,29.55518Z" />
    <path
        d="M41,26.209a4.68123,4.68123,0,0,0-3.81885,2.19776,1.00012,1.00012,0,0,0,1.6377,1.14844,2.47774,2.47774,0,0,1,4.3623,0,1.00012,1.00012,0,0,0,1.6377-1.14844A4.68123,4.68123,0,0,0,41,26.209Z" />
</svg>