<?xml version="1.0" encoding="UTF-8" standalone="no"?>
<!-- Created with Inkscape (http://www.inkscape.org/) -->

<svg
   version="1.1"
   id="svg4719"
   xml:space="preserve"
   width="682.66669"
   height="682.66669"
   viewBox="0 0 682.66669 682.66669"
   xmlns="http://www.w3.org/2000/svg"
   xmlns:svg="http://www.w3.org/2000/svg"><defs
     id="defs4723"><clipPath
       clipPathUnits="userSpaceOnUse"
       id="clipPath4733"><path
         d="M 0,512 H 512 V 0 H 0 Z"
         id="path4731" /></clipPath></defs><g
     id="g4725"
     transform="matrix(1.3333333,0,0,-1.3333333,0,682.66667)"><g
       id="g4727"><g
         id="g4729"
         clip-path="url(#clipPath4733)"><g
           id="g4735"
           transform="translate(495.8354,7.5)"><path
             d="m 0,0 h -479.671 c -4.785,0 -8.664,3.879 -8.664,8.665 v 21.67 c 0,4.786 3.879,8.665 8.664,8.665 H 0 c 4.785,0 8.665,-3.879 8.665,-8.665 V 8.665 C 8.665,3.879 4.785,0 0,0 Z"
             style="fill:none;stroke:#6b04fd;stroke-width:15;stroke-linecap:round;stroke-linejoin:round;stroke-miterlimit:10;stroke-dasharray:none;stroke-opacity:1"
             id="path4737" /></g><g
           id="g4739"
           transform="translate(413.1743,165.3018)"><path
             d="m 0,0 h -54.341 c -11.046,0 -20,-8.954 -20,-20"
             style="fill:none;stroke:#6b04fd;stroke-width:15;stroke-linecap:round;stroke-linejoin:round;stroke-miterlimit:10;stroke-dasharray:none;stroke-opacity:1"
             id="path4741" /></g><g
           id="g4743"
           transform="translate(489.5,46.5)"><path
             d="m 0,0 v 98.802 c 0,11.046 -8.954,20 -20,20 h -26.326"
             style="fill:none;stroke:#6b04fd;stroke-width:15;stroke-linecap:round;stroke-linejoin:round;stroke-miterlimit:10;stroke-dasharray:none;stroke-opacity:1"
             id="path4745" /></g><g
           id="g4747"
           transform="translate(338.8335,46.5)"><path
             d="m 0,0 v 263.802 c 0,11.046 -8.955,20 -20,20 h -125.667 c -11.045,0 -20,-8.954 -20,-20 V 0"
             style="fill:none;stroke:#6b04fd;stroke-width:15;stroke-linecap:round;stroke-linejoin:round;stroke-miterlimit:10;stroke-dasharray:none;stroke-opacity:1"
             id="path4749" /></g><g
           id="g4751"
           transform="translate(22.5,76.5)"><path
             d="m 0,0 v 113.802 c 0,11.046 8.954,20 20,20 h 110.667 c 11.045,0 20,-8.954 20,-20"
             style="fill:none;stroke:#6b04fd;stroke-width:15;stroke-linecap:round;stroke-linejoin:round;stroke-miterlimit:10;stroke-dasharray:none;stroke-opacity:1"
             id="path4753" /></g><g
           id="g4755"
           transform="translate(308.6899,488.04)"><path
             d="m 0,0 h 37.3 c 4.61,0 7.62,-4.82 5.59,-8.96 l -10.9,-22.23 c -9,-18.36 -27.67,-30 -48.12,-30 h -1.64"
             style="fill:none;stroke:#6b04fd;stroke-width:15;stroke-linecap:round;stroke-linejoin:round;stroke-miterlimit:10;stroke-dasharray:none;stroke-opacity:1"
             id="path4757" /></g><g
           id="g4759"
           transform="translate(221.0801,426.8496)"><path
             d="m 0,0 h -1.64 c -20.45,0 -39.12,11.641 -48.12,30 l -10.9,22.23 c -2.03,4.14 0.98,8.96 5.59,8.96 h 37.3"
             style="fill:none;stroke:#6b04fd;stroke-width:15;stroke-linecap:round;stroke-linejoin:round;stroke-miterlimit:10;stroke-dasharray:none;stroke-opacity:1"
             id="path4761" /></g><g
           id="g4763"
           transform="translate(238.5747,366.6455)"><path
             d="M 0,0 V 38.245"
             style="fill:none;stroke:#6b04fd;stroke-width:15;stroke-linecap:round;stroke-linejoin:round;stroke-miterlimit:10;stroke-dasharray:none;stroke-opacity:1"
             id="path4765" /></g><g
           id="g4767"
           transform="translate(273.4253,404.8906)"><path
             d="M 0,0 V -38.245"
             style="fill:none;stroke:#6b04fd;stroke-width:15;stroke-linecap:round;stroke-linejoin:round;stroke-miterlimit:10;stroke-dasharray:none;stroke-opacity:1"
             id="path4769" /></g><g
           id="g4771"
           transform="translate(211.2749,330.3018)"><path
             d="m 0,0 v 24.728 c 0,6.415 5.201,11.616 11.617,11.616 h 66.216 c 6.416,0 11.617,-5.201 11.617,-11.616 V 0"
             style="fill:none;stroke:#6b04fd;stroke-width:15;stroke-linecap:round;stroke-linejoin:round;stroke-miterlimit:10;stroke-dasharray:none;stroke-opacity:1"
             id="path4773" /></g><g
           id="g4775"
           transform="translate(273.4253,404.8906)"><path
             d="m 0,0 v 0 h -34.851 c -22.576,22.3 -35.283,52.711 -35.283,84.444 v 11.293 c 0,2.139 1.734,3.872 3.872,3.872 h 97.673 c 2.139,0 3.873,-1.733 3.873,-3.872 V 84.444 C 35.284,52.711 22.577,22.3 0,0 Z"
             style="fill:none;stroke:#6b04fd;stroke-width:15;stroke-linecap:round;stroke-linejoin:round;stroke-miterlimit:10;stroke-dasharray:none;stroke-opacity:1"
             id="path4777" /></g><g
           id="g4779"
           transform="translate(249.1929,220.248)"><path
             d="M 0,0 H 13.614 V -63.694"
             style="fill:none;stroke:#6b04fd;stroke-width:15;stroke-linecap:round;stroke-linejoin:round;stroke-miterlimit:10;stroke-dasharray:none;stroke-opacity:1"
             id="path4781" /></g><g
           id="g4783"
           transform="translate(115.3286,96.0771)"><path
             d="m 0,0 c 0,0 -30.99,-0.389 -32.458,0.101 -1.468,0.489 2.354,3.073 22.671,32.104 3.795,5.421 5.884,9.995 6.772,13.827 l 0.315,2.464 c 0,9.001 -7.297,16.298 -16.298,16.298 -7.92,0 -14.522,-5.649 -15.992,-13.139"
             style="fill:none;stroke:#6b04fd;stroke-width:15;stroke-linecap:round;stroke-linejoin:round;stroke-miterlimit:10;stroke-dasharray:none;stroke-opacity:1"
             id="path4785" /></g><g
           id="g4787"
           transform="translate(398.1743,125.3584)"><path
             d="m 0,0 c 1.471,7.489 8.072,13.139 15.992,13.139 9.002,0 16.299,-7.297 16.299,-16.298 0,-9.001 -7.297,-16.298 -16.299,-16.298"
             style="fill:none;stroke:#6b04fd;stroke-width:15;stroke-linecap:round;stroke-linejoin:round;stroke-miterlimit:10;stroke-dasharray:none;stroke-opacity:1"
             id="path4789" /></g><g
           id="g4791"
           transform="translate(414.1665,105.9014)"><path
             d="M 0,0 C 9.001,0 16.298,-7.297 16.298,-16.299 16.298,-25.3 9.001,-32.597 0,-32.597 c -8.229,0 -15.035,6.1 -16.141,14.025 -0.104,0.743 -0.157,1.502 -0.157,2.273"
             style="fill:none;stroke:#6b04fd;stroke-width:15;stroke-linecap:round;stroke-linejoin:round;stroke-miterlimit:10;stroke-dasharray:none;stroke-opacity:1"
             id="path4793" /></g></g></g></g></svg>
